# xmcd CD database file
#
# Track frame offsets:
#	150
#	12640
#	26298
#	38763
#	50128
#	62943
#	77235
#	91011
#	103929
#	115362
#	126941
#	137564
#	149087
#	162380
#	174133
#	187415
#	199816
#	212478
#	223911
#	236627
#	250307
#	263054
#	275315
#	285085
#	295364
#	307950
#	321054
#	333197
#
# Disc length: 4565 seconds
#
# Revision: 0
# Processed by: cddbd v1.5.1PL0 Copyright (c) Steve Scherf et al.
# Submitted via: CDex 1.51
#
DISCID=ac11d31c
DTITLE=Various Artist - Nite Spots Blues
DYEAR=1998
DGENRE=Country
TTITLE0=Bob Dunn's Vagabonds - Mama's Gone Goodbye
TTITLE1=Ross Rhythm Rascals - Boojie Woo Blues
TTITLE2=Ocie Stockard and His Wanderers - Jitterbug Katy
TTITLE3=Lew Preston and His Men Of The Range - Soldier Boy Stomp
TTITLE4=Shelly Lee Alley and His Alley Cats - Let Me Bring It To Your Door
TTITLE5=The Wanderers - Wanderer's Stomp
TTITLE6=Ross Rhythm Rascals - There's Gonna Be No Me To Welcome You
TTITLE7=Jimmy Hart and His Merrymakers - Cheatin' On Me
TTITLE8=Adolph Hofner and His Texans - Come On And Swing Me
TTITLE9=Light Crust Doughboys - Sluefoot On The Levee
TTITLE10=Blue Ridge Playboys - Swing Baby Swing
TTITLE11=Blue Ridge Playboys - Keep Your Nose Out Of Daddy's Business
TTITLE12=The Three Virginians - June Tenth Blues
TTITLE13=Universal Cowboys - Nite Spot Blues
TTITLE14=Dickie McBride and The Village Boys - Tell Me Dear (Don't You Care)
TTITLE15=Modern Mountaineers - Never Slept Last Night
TTITLE16=Leon Pappy Selph and His Blue Ridge Playboys - Polecat Stomp
TTITLE17=Bill Boyd's Cowboys - Must I Hesitate? (The Hesitation Blues)
TTITLE18=Light Crust Doughboys - Tea For Two
TTITLE19=Texas Wanderers - Waitin' At The End Of The Road
TTITLE20=Shelly Lee Alley and His Alley Cats - I'm Still In Love With You
TTITLE21=Leon's Lone Star Cowboys - Ben Wheeler Stomp
TTITLE22=Alabama Boys - Blues
TTITLE23=Alabama Boys - Frankie and Johnny
TTITLE24=Alabama Boys - Mama Don't Allow
TTITLE25=Texas Wanderers - Jo Jo
TTITLE26=Leon's Lone Star Cowboys - Goin' Up To Dallas
TTITLE27=Light Crust Doughboys  - Bugle Call Rag
EXTD=YEAR: 1998
EXTT0=
EXTT1=
EXTT2=
EXTT3=
EXTT4=
EXTT5=
EXTT6=
EXTT7=
EXTT8=
EXTT9=
EXTT10=
EXTT11=
EXTT12=
EXTT13=
EXTT14=
EXTT15=
EXTT16=
EXTT17=
EXTT18=
EXTT19=
EXTT20=
EXTT21=
EXTT22=
EXTT23=
EXTT24=
EXTT25=
EXTT26=
EXTT27=
PLAYORDER=
